<svg viewBox="0 0 72 29" xmlns="http://www.w3.org/2000/svg"><defs><linearGradient x1="9.319%" y1="43.117%" x2="85.711%" y2="57.759%" id="vobi-logo-gradient"><stop stop-color="#4C546E" offset="0%"/><stop stop-color="#2E354D" offset="100%"/></linearGradient></defs><path d="M371.61 54.63l7.544-19.86h-5.769l-4.308 12.387-4.327-12.387H359l7.544 19.86h5.066zm17.917.37a9.722 9.722 0 003.948-.807 10.12 10.12 0 003.208-2.206c.912-.933 1.633-2.04 2.163-3.32.53-1.279.795-2.66.795-4.143 0-1.583-.265-3.02-.795-4.311-.53-1.292-1.251-2.399-2.163-3.32a9.537 9.537 0 00-3.208-2.132c-1.227-.5-2.543-.75-3.948-.75a9.774 9.774 0 00-3.93.797 10.102 10.102 0 00-3.216 2.197c-.919.933-1.643 2.043-2.173 3.328-.53 1.286-.795 2.683-.795 4.19 0 1.484.265 2.865.795 4.145a10.29 10.29 0 002.173 3.319 10.23 10.23 0 003.217 2.206 9.677 9.677 0 003.929.807zm0-5.08c-.69 0-1.34-.14-1.95-.418a4.974 4.974 0 01-1.59-1.14 5.355 5.355 0 01-1.064-1.706 5.751 5.751 0 01-.388-2.132c0-.816.13-1.555.388-2.216a5.222 5.222 0 011.063-1.706c.45-.476.98-.84 1.59-1.094.61-.253 1.26-.38 1.951-.38.69 0 1.34.127 1.95.38.61.253 1.144.618 1.6 1.094a5.264 5.264 0 011.082 1.706c.265.661.397 1.4.397 2.216 0 .803-.132 1.539-.397 2.206a5.136 5.136 0 01-1.082 1.706c-.456.47-.99.834-1.6 1.094-.61.26-1.26.39-1.95.39zM412.14 55c1.405 0 2.721-.253 3.948-.76a9.654 9.654 0 003.208-2.142c.912-.92 1.633-2.024 2.163-3.31.53-1.285.795-2.707.795-4.264 0-1.52-.265-2.92-.795-4.2a10.48 10.48 0 00-2.163-3.328 9.802 9.802 0 00-3.208-2.198 9.92 9.92 0 00-3.948-.788c-.456 0-.924.047-1.405.14-.48.092-.946.225-1.396.398-.45.173-.869.396-1.257.667a4.59 4.59 0 00-.99.928V26.87h-5.066v17.653c0 1.532.265 2.939.795 4.218.53 1.28 1.255 2.383 2.173 3.31A9.974 9.974 0 00412.14 55zm0-5.08c-.69 0-1.34-.14-1.95-.418a5.081 5.081 0 01-1.6-1.14 5.271 5.271 0 01-1.072-1.706 5.751 5.751 0 01-.389-2.132c0-.693.13-1.363.389-2.012a5.638 5.638 0 011.072-1.725c.456-.5.99-.902 1.6-1.205a4.329 4.329 0 011.95-.454c.69 0 1.34.136 1.95.408.611.272 1.144.649 1.6 1.13a5.375 5.375 0 011.082 1.716c.265.661.397 1.375.397 2.142 0 .766-.132 1.477-.397 2.132a5.4 5.4 0 01-1.082 1.706c-.456.482-.989.862-1.6 1.14-.61.278-1.26.417-1.95.417zm15.458-17.17c.468 0 .909-.09 1.322-.27.413-.179.773-.42 1.082-.723.308-.303.551-.658.73-1.066.179-.408.268-.847.268-1.316a3.353 3.353 0 00-.998-2.383 3.535 3.535 0 00-1.082-.723 3.284 3.284 0 00-1.322-.269c-.469 0-.91.09-1.322.269-.413.18-.77.42-1.073.723a3.43 3.43 0 00-.72 1.075c-.18.415-.269.85-.269 1.308 0 .47.09.908.268 1.316.179.408.42.763.721 1.066.302.303.66.544 1.073.723.413.18.853.27 1.322.27zm2.533 21.88V34.77h-5.085v19.86h5.085z" transform="translate(-359 -26)" fill="url(#vobi-logo-gradient)" fill-rule="nonzero"/></svg>
